<mxfile host="65bd71144e">
    <diagram id="j_Ghdna1Jv544Nra6jJN" name="Page-1">
        <mxGraphModel dx="832" dy="465" grid="0" gridSize="10" guides="1" tooltips="1" connect="1" arrows="1" fold="1" page="1" pageScale="1" pageWidth="850" pageHeight="1100" math="0" shadow="0">
            <root>
                <mxCell id="0"/>
                <mxCell id="1" parent="0"/>
                <mxCell id="9" style="edgeStyle=none;html=1;exitX=1;exitY=0.25;exitDx=0;exitDy=0;entryX=0;entryY=0.25;entryDx=0;entryDy=0;fontSize=14;" parent="1" source="2" target="8" edge="1">
                    <mxGeometry relative="1" as="geometry"/>
                </mxCell>
                <mxCell id="17" value="connect" style="edgeLabel;html=1;align=center;verticalAlign=middle;resizable=0;points=[];fontSize=14;" parent="9" vertex="1" connectable="0">
                    <mxGeometry x="0.2889" y="3" relative="1" as="geometry">
                        <mxPoint x="-20" y="3" as="offset"/>
                    </mxGeometry>
                </mxCell>
                <mxCell id="2" value="&lt;font style=&quot;font-size: 14px;&quot;&gt;Client&lt;/font&gt;" style="whiteSpace=wrap;html=1;fillColor=#dae8fc;strokeColor=#6c8ebf;fontSize=14;" parent="1" vertex="1">
                    <mxGeometry x="40" y="170" width="120" height="120" as="geometry"/>
                </mxCell>
                <mxCell id="15" style="edgeStyle=none;html=1;exitX=0;exitY=0;exitDx=0;exitDy=67.5;exitPerimeter=0;entryX=1.017;entryY=0.642;entryDx=0;entryDy=0;entryPerimeter=0;fontSize=14;" parent="1" source="4" target="8" edge="1">
                    <mxGeometry relative="1" as="geometry"/>
                </mxCell>
                <mxCell id="21" value="result" style="edgeLabel;html=1;align=center;verticalAlign=middle;resizable=0;points=[];fontSize=14;" parent="15" vertex="1" connectable="0">
                    <mxGeometry x="0.3709" relative="1" as="geometry">
                        <mxPoint x="24" as="offset"/>
                    </mxGeometry>
                </mxCell>
                <mxCell id="16" style="edgeStyle=none;html=1;exitX=1;exitY=0.35;exitDx=0;exitDy=0;exitPerimeter=0;entryX=0;entryY=0;entryDx=0;entryDy=32.5;entryPerimeter=0;fontSize=14;" parent="1" source="8" target="4" edge="1">
                    <mxGeometry relative="1" as="geometry"/>
                </mxCell>
                <mxCell id="20" value="query" style="edgeLabel;html=1;align=center;verticalAlign=middle;resizable=0;points=[];fontSize=14;" parent="16" vertex="1" connectable="0">
                    <mxGeometry x="-0.1997" y="-4" relative="1" as="geometry">
                        <mxPoint x="16" y="-6" as="offset"/>
                    </mxGeometry>
                </mxCell>
                <mxCell id="4" value="Database" style="shape=cylinder3;whiteSpace=wrap;html=1;boundedLbl=1;backgroundOutline=1;size=15;fontSize=14;fillColor=#ffe6cc;strokeColor=#d79b00;" parent="1" vertex="1">
                    <mxGeometry x="530" y="180" width="75" height="100" as="geometry"/>
                </mxCell>
                <mxCell id="10" style="edgeStyle=none;html=1;exitX=0;exitY=0.75;exitDx=0;exitDy=0;entryX=1;entryY=0.75;entryDx=0;entryDy=0;fontSize=14;" parent="1" source="8" target="2" edge="1">
                    <mxGeometry relative="1" as="geometry"/>
                </mxCell>
                <mxCell id="18" value="output" style="edgeLabel;html=1;align=center;verticalAlign=middle;resizable=0;points=[];fontSize=14;" parent="10" vertex="1" connectable="0">
                    <mxGeometry x="-0.2444" y="-2" relative="1" as="geometry">
                        <mxPoint x="-17" y="1" as="offset"/>
                    </mxGeometry>
                </mxCell>
                <mxCell id="8" value="Server" style="image;html=1;image=img/lib/clip_art/computers/Server_Rack_128x128.png;fontSize=14;" parent="1" vertex="1">
                    <mxGeometry x="300" y="170" width="120" height="120" as="geometry"/>
                </mxCell>
            </root>
        </mxGraphModel>
    </diagram>
</mxfile>